<?xml version="1.0" standalone="no"?>
<!DOCTYPE svg PUBLIC "-//W3C//DTD SVG 20010904//EN"
 "http://www.w3.org/TR/2001/REC-SVG-20010904/DTD/svg10.dtd">
<svg version="1.0" xmlns="http://www.w3.org/2000/svg"
 width="32.000000pt" height="32.000000pt" viewBox="0 0 32.000000 32.000000"
 preserveAspectRatio="xMidYMid meet">

<g transform="translate(0.000000,32.000000) scale(0.100000,-0.100000)"
fill="#000000" stroke="none">
<path d="M36 284 c-11 -10 -16 -34 -16 -70 0 -30 -4 -54 -10 -54 -5 0 -10 -9
-10 -20 0 -11 4 -20 8 -20 5 0 15 -23 22 -50 10 -37 18 -50 32 -50 10 0 18 5
18 10 0 6 33 10 80 10 47 0 80 -4 80 -10 0 -5 8 -10 18 -10 14 0 22 13 32 50
7 28 17 50 22 50 4 0 8 9 8 20 0 19 -7 20 -136 20 l-135 0 3 52 c2 30 8 53 16
56 7 2 12 -6 12 -20 0 -13 6 -32 13 -41 11 -16 15 -15 46 17 l34 35 -47 21
c-57 24 -70 25 -90 4z"/>
</g>
</svg>
