<svg id="Layer_1" data-name="Layer 1" xmlns="http://www.w3.org/2000/svg" viewBox="0 0 511.18 247.66"><path d="M117,133.8c-4.3,2-109.5,105.3-113.7,111.6-3.6,5.4-3.7,15.3-.3,20.8,3.6,5.8,109.7,110,114,112,9.4,4.4,22.5-.8,26.1-10.5,1.5-4,1.4-12.2-.3-16-.8-1.8-17.4-19.2-37.5-39.2l-36.1-36,214.7-.5,214.8-.5,3.8-2.4a26.3,26.3,0,0,0,6.5-6.4c2.3-3.4,2.7-5.2,2.7-10.7s-.4-7.3-2.7-10.7a26.3,26.3,0,0,0-6.5-6.4l-3.8-2.4-214.8-.5-214.7-.5,36.1-36c20.1-20,36.7-37.4,37.5-39.2,1.7-3.8,1.8-12,.3-16s-5.7-8.2-10.4-10.4A18.73,18.73,0,0,0,117,133.8Z" transform="translate(-0.5 -132.12)"/></svg>